<svg width="541" height="46" viewBox="0 0 541 46" fill="none" xmlns="http://www.w3.org/2000/svg">
<path d="M17.0058 37.6055C10.7485 37.6055 4.79392 35.6375 0.454161 31.7519L5.90409 25.2423C9.38599 28.0177 13.2716 29.4811 17.359 29.4811C19.9831 29.4811 21.396 28.5728 21.396 27.0589V26.958C21.396 25.4946 20.2354 24.6872 15.4415 23.577C7.92258 21.8613 2.11942 19.7419 2.11942 12.4753V12.3744C2.11942 5.8143 7.31703 1.07084 15.7947 1.07084C21.7997 1.07084 26.4927 2.68564 30.3278 5.76384L25.433 12.6772C22.2034 10.4064 18.671 9.19528 15.5424 9.19528C13.1707 9.19528 12.01 10.2045 12.01 11.4661V11.567C12.01 13.1818 13.2211 13.8883 18.116 14.9984C26.2404 16.7646 31.2866 19.3887 31.2866 25.9992V26.1001C31.2866 33.3163 25.5844 37.6055 17.0058 37.6055ZM35.4923 37V0.162523H45.0802V18.8336L52.4981 9.6999H63.3475L53.8606 20.6502L63.5998 37H53.0532L47.5528 27.7149L45.0802 30.5913V37H35.4923ZM73.1341 45.2254C69.7531 45.2254 66.8767 44.2666 64.3536 42.8536L67.3309 36.1421C68.8448 37.0505 70.4596 37.6055 71.5193 37.6055C72.478 37.6055 73.1341 37.3532 73.7396 36.4954L63.0416 9.6999H73.0836L78.5335 26.1506L83.6807 9.6999H93.5208L83.5293 36.344C81.1576 42.7022 78.584 45.2254 73.1341 45.2254ZM114.209 37.7065C104.117 37.7065 95.9923 29.9857 95.9923 19.4391V19.3382C95.9923 9.04389 103.915 0.969919 114.613 0.969919C121.829 0.969919 126.472 3.99766 129.6 8.33742L122.233 14.0397C120.214 11.5165 117.893 9.90175 114.512 9.90175C109.567 9.90175 106.085 14.0901 106.085 19.2373V19.3382C106.085 24.6367 109.567 28.7746 114.512 28.7746C118.196 28.7746 120.366 27.0589 122.485 24.4854L129.853 29.7334C126.522 34.3255 122.031 37.7065 114.209 37.7065ZM146.944 37.656C138.214 37.656 131.906 31.2473 131.906 23.4761V23.3752C131.906 15.604 138.265 9.09435 147.045 9.09435C155.775 9.09435 162.083 15.5031 162.083 23.2743V23.3752C162.083 31.1464 155.725 37.656 146.944 37.656ZM147.045 29.5316C150.527 29.5316 152.747 26.7562 152.747 23.4761V23.3752C152.747 20.0447 150.325 17.2188 146.944 17.2188C143.462 17.2188 141.242 19.9942 141.242 23.2743V23.3752C141.242 26.7057 143.664 29.5316 147.045 29.5316ZM166.133 37V9.6999H175.72V13.535C177.487 11.2642 180.01 9.09435 183.895 9.09435C189.698 9.09435 193.18 12.9295 193.18 19.1363V37H183.592V22.2145C183.592 19.2373 182.028 17.6225 179.757 17.6225C177.436 17.6225 175.72 19.2373 175.72 22.2145V37H166.133ZM198.115 37V9.6999H207.703V13.535C209.469 11.2642 211.992 9.09435 215.878 9.09435C221.681 9.09435 225.163 12.9295 225.163 19.1363V37H215.575V22.2145C215.575 19.2373 214.011 17.6225 211.74 17.6225C209.419 17.6225 207.703 19.2373 207.703 22.2145V37H198.115ZM243.621 37.656C235.043 37.656 228.987 31.9538 228.987 23.4761V23.3752C228.987 15.4021 234.689 9.09435 242.763 9.09435C252.2 9.09435 256.54 16.0077 256.54 24.0312C256.54 24.6367 256.54 25.3432 256.489 25.9992H238.222C238.979 28.9765 241.149 30.4904 244.126 30.4904C246.397 30.4904 248.213 29.6325 250.181 27.7149L255.48 32.1052C252.856 35.4357 249.071 37.656 243.621 37.656ZM238.07 21.1044H247.557C247.204 18.0766 245.438 16.1591 242.814 16.1591C240.291 16.1591 238.575 18.1271 238.07 21.1044ZM273.821 37.656C265.596 37.656 259.541 31.1968 259.541 23.4761V23.3752C259.541 15.6544 265.546 9.14481 274.175 9.14481C279.776 9.14481 283.51 11.567 285.831 15.2507L279.322 20.0951C278.01 18.2785 276.546 17.2188 274.225 17.2188C271.147 17.2188 268.876 19.9437 268.876 23.2743V23.3752C268.876 26.9075 271.096 29.582 274.326 29.582C276.597 29.582 278.06 28.5223 279.574 26.7562L285.983 31.3987C283.46 35.1329 279.826 37.656 273.821 37.656ZM300.23 37.5551C294.477 37.5551 291.046 35.032 291.046 28.5223V17.4206H287.816V9.6999H291.046V2.78656H300.634V9.6999H306.992V17.4206H300.634V26.6552C300.634 28.5728 301.492 29.3802 303.258 29.3802C304.519 29.3802 305.731 29.027 306.891 28.4719V35.9908C305.175 36.9495 302.905 37.5551 300.23 37.5551ZM325.664 37V1.67639H354.074V10.0027H335.352V15.3517H352.308V23.0724H335.352V28.6737H354.326V37H325.664ZM356.597 37L365.781 23.2238L356.748 9.6999H367.093L371.13 16.4114L375.167 9.6999H385.31L376.327 23.1733L385.511 37H375.217L370.978 29.9857L366.689 37H356.597ZM388.482 45.074V9.6999H398.07V13.3332C399.937 11.0624 402.258 9.09435 406.346 9.09435C412.855 9.09435 418.457 14.4938 418.457 23.2238V23.3247C418.457 32.2061 412.855 37.6055 406.396 37.6055C402.258 37.6055 399.836 35.7384 398.07 33.6695V45.074H388.482ZM403.419 29.582C406.548 29.582 409.02 27.0589 409.02 23.3752V23.2743C409.02 19.6914 406.548 17.1179 403.419 17.1179C400.341 17.1179 397.868 19.6914 397.868 23.2743V23.3752C397.868 27.0085 400.341 29.582 403.419 29.582ZM422.785 37V0.162523H432.373V37H422.785ZM451.64 37.656C442.91 37.656 436.602 31.2473 436.602 23.4761V23.3752C436.602 15.604 442.96 9.09435 451.741 9.09435C460.471 9.09435 466.779 15.5031 466.779 23.2743V23.3752C466.779 31.1464 460.42 37.656 451.64 37.656ZM451.741 29.5316C455.223 29.5316 457.443 26.7562 457.443 23.4761V23.3752C457.443 20.0447 455.021 17.2188 451.64 17.2188C448.158 17.2188 445.938 19.9942 445.938 23.2743V23.3752C445.938 26.7057 448.36 29.5316 451.741 29.5316ZM470.828 37V9.6999H480.416V15.2003C481.98 11.4661 484.503 9.04389 489.045 9.24574V19.3382H488.238C483.242 19.3382 480.416 22.2145 480.416 28.5223V37H470.828ZM505.444 37.656C496.865 37.656 490.81 31.9538 490.81 23.4761V23.3752C490.81 15.4021 496.512 9.09435 504.586 9.09435C514.022 9.09435 518.362 16.0077 518.362 24.0312C518.362 24.6367 518.362 25.3432 518.312 25.9992H500.044C500.801 28.9765 502.971 30.4904 505.948 30.4904C508.219 30.4904 510.036 29.6325 512.004 27.7149L517.302 32.1052C514.678 35.4357 510.894 37.656 505.444 37.656ZM499.893 21.1044H509.38C509.027 18.0766 507.26 16.1591 504.636 16.1591C502.113 16.1591 500.398 18.1271 499.893 21.1044ZM522.473 37V9.6999H532.061V15.2003C533.625 11.4661 536.149 9.04389 540.69 9.24574V19.3382H539.883C534.887 19.3382 532.061 22.2145 532.061 28.5223V37H522.473Z" fill="url(#paint0_linear_1_29)"/>
<defs>
<linearGradient id="paint0_linear_1_29" x1="0" y1="18" x2="542" y2="18" gradientUnits="userSpaceOnUse">
<stop stop-color="#006AFF"/>
<stop offset="1" stop-color="#00F9FF"/>
</linearGradient>
</defs>
</svg>
